<svg xmlns="http://www.w3.org/2000/svg" viewBox="0 0 200 200" width="200" height="200">
  <!-- Blue circular background -->
  <circle cx="100" cy="100" r="100" fill="#4A90E2"/>
  
  <!-- White base head -->
  <ellipse cx="100" cy="105" rx="55" ry="60" fill="#FFFFFF"/>
  
  <!-- Black mask top of head -->
  <ellipse cx="100" cy="65" rx="52" ry="35" fill="#2C3E50"/>
  
  <!-- Left ear - black -->
  <ellipse cx="70" cy="50" rx="18" ry="28" fill="#2C3E50" transform="rotate(-25 70 50)"/>
  
  <!-- Right ear - black -->
  <ellipse cx="130" cy="50" rx="18" ry="28" fill="#2C3E50" transform="rotate(25 130 50)"/>
  
  <!-- Black mask around eyes -->
  <ellipse cx="82" cy="85" rx="22" ry="28" fill="#2C3E50"/>
  <ellipse cx="118" cy="85" rx="22" ry="28" fill="#2C3E50"/>
  
  <!-- White patches in mask (around eyes) -->
  <ellipse cx="82" cy="90" rx="16" ry="20" fill="#FFFFFF"/>
  <ellipse cx="118" cy="90" rx="16" ry="20" fill="#FFFFFF"/>
  
  <!-- Happy closed eyes - upward curved lines -->
  <path d="M 72 88 Q 82 82 92 88" stroke="#2C3E50" stroke-width="4" fill="none" stroke-linecap="round"/>
  <path d="M 108 88 Q 118 82 128 88" stroke="#2C3E50" stroke-width="4" fill="none" stroke-linecap="round"/>
  
  <!-- Snout/muzzle area - white -->
  <ellipse cx="100" cy="120" rx="32" ry="28" fill="#FFFFFF"/>
  
  <!-- Nose - small black oval -->
  <ellipse cx="100" cy="115" rx="8" ry="6" fill="#2C3E50"/>
  
  <!-- Open mouth smile -->
  <path d="M 100 115 L 100 125" stroke="#2C3E50" stroke-width="2"/>
  <path d="M 75 130 Q 100 145 125 130" stroke="#2C3E50" stroke-width="3" fill="none" stroke-linecap="round"/>
  
  <!-- Pink tongue -->
  <ellipse cx="100" cy="135" rx="12" ry="8" fill="#FF8FA3"/>
  
  <!-- Mouth details -->
  <path d="M 85 125 Q 90 128 95 125" stroke="#2C3E50" stroke-width="2" fill="none"/>
  <path d="M 105 125 Q 110 128 115 125" stroke="#2C3E50" stroke-width="2" fill="none"/>
</svg>
